<mxfile host="app.diagrams.net" modified="2022-08-28T14:22:10.862Z" agent="5.0 (Windows NT 10.0; Win64; x64) AppleWebKit/537.36 (KHTML, like Gecko) Chrome/104.0.5112.102 Safari/537.36" etag="xxHnW3WkLnk5ErM2liNQ" version="20.2.7" type="github">
  <diagram id="0dW48__4eKg_l8SKbeZD" name="Page-1">
    <mxGraphModel dx="1182" dy="728" grid="1" gridSize="10" guides="1" tooltips="1" connect="1" arrows="1" fold="1" page="1" pageScale="1" pageWidth="850" pageHeight="1100" math="0" shadow="0">
      <root>
        <mxCell id="0" />
        <mxCell id="1" parent="0" />
        <mxCell id="4N19s6-SsHeJS5iG0tzN-4" value="University" style="swimlane;fontStyle=0;childLayout=stackLayout;horizontal=1;startSize=30;horizontalStack=0;resizeParent=1;resizeParentMax=0;resizeLast=0;collapsible=1;marginBottom=0;" parent="1" vertex="1">
          <mxGeometry x="280" y="80" width="140" height="130" as="geometry" />
        </mxCell>
        <mxCell id="4N19s6-SsHeJS5iG0tzN-10" value="Classroom" style="swimlane;" parent="1" vertex="1">
          <mxGeometry x="40" y="270" width="160" height="120" as="geometry" />
        </mxCell>
        <mxCell id="4N19s6-SsHeJS5iG0tzN-12" value="Office" style="swimlane;" parent="1" vertex="1">
          <mxGeometry x="520" y="540" width="200" height="110" as="geometry" />
        </mxCell>
        <mxCell id="4N19s6-SsHeJS5iG0tzN-13" value="Departmant" style="swimlane;" parent="1" vertex="1">
          <mxGeometry x="550" y="280" width="200" height="115" as="geometry" />
        </mxCell>
        <mxCell id="4N19s6-SsHeJS5iG0tzN-14" value="" style="endArrow=diamondThin;endFill=0;endSize=24;html=1;rounded=0;exitX=0.5;exitY=0;exitDx=0;exitDy=0;" parent="1" source="4N19s6-SsHeJS5iG0tzN-10" edge="1">
          <mxGeometry width="160" relative="1" as="geometry">
            <mxPoint x="60" y="210" as="sourcePoint" />
            <mxPoint x="280" y="145" as="targetPoint" />
            <Array as="points">
              <mxPoint x="120" y="145" />
            </Array>
          </mxGeometry>
        </mxCell>
        <mxCell id="4N19s6-SsHeJS5iG0tzN-17" value="" style="endArrow=diamondThin;endFill=0;endSize=24;html=1;rounded=0;" parent="1" edge="1">
          <mxGeometry width="160" relative="1" as="geometry">
            <mxPoint x="650" y="280" as="sourcePoint" />
            <mxPoint x="420" y="160" as="targetPoint" />
            <Array as="points">
              <mxPoint x="650" y="160" />
            </Array>
          </mxGeometry>
        </mxCell>
        <mxCell id="4N19s6-SsHeJS5iG0tzN-23" value="Extends" style="endArrow=block;endSize=16;endFill=0;html=1;rounded=0;exitX=0.5;exitY=0;exitDx=0;exitDy=0;entryX=0.25;entryY=1;entryDx=0;entryDy=0;" parent="1" source="4N19s6-SsHeJS5iG0tzN-12" target="4N19s6-SsHeJS5iG0tzN-13" edge="1">
          <mxGeometry width="160" relative="1" as="geometry">
            <mxPoint x="340" y="370" as="sourcePoint" />
            <mxPoint x="500" y="370" as="targetPoint" />
          </mxGeometry>
        </mxCell>
        <mxCell id="4N19s6-SsHeJS5iG0tzN-35" value="" style="edgeStyle=orthogonalEdgeStyle;rounded=0;orthogonalLoop=1;jettySize=auto;html=1;" parent="1" source="4N19s6-SsHeJS5iG0tzN-24" target="4N19s6-SsHeJS5iG0tzN-34" edge="1">
          <mxGeometry relative="1" as="geometry" />
        </mxCell>
        <mxCell id="4N19s6-SsHeJS5iG0tzN-37" value="" style="edgeStyle=orthogonalEdgeStyle;rounded=0;orthogonalLoop=1;jettySize=auto;html=1;" parent="1" source="4N19s6-SsHeJS5iG0tzN-24" target="4N19s6-SsHeJS5iG0tzN-36" edge="1">
          <mxGeometry relative="1" as="geometry" />
        </mxCell>
        <mxCell id="4N19s6-SsHeJS5iG0tzN-40" style="edgeStyle=orthogonalEdgeStyle;rounded=0;orthogonalLoop=1;jettySize=auto;html=1;exitX=1;exitY=0.5;exitDx=0;exitDy=0;entryX=0;entryY=0.25;entryDx=0;entryDy=0;" parent="1" source="4N19s6-SsHeJS5iG0tzN-24" target="4N19s6-SsHeJS5iG0tzN-12" edge="1">
          <mxGeometry relative="1" as="geometry" />
        </mxCell>
        <mxCell id="4N19s6-SsHeJS5iG0tzN-24" value="Employee" style="swimlane;fontStyle=0;childLayout=stackLayout;horizontal=1;startSize=26;fillColor=none;horizontalStack=0;resizeParent=1;resizeParentMax=0;resizeLast=0;collapsible=1;marginBottom=0;" parent="1" vertex="1">
          <mxGeometry x="270" y="370" width="140" height="120" as="geometry" />
        </mxCell>
        <mxCell id="4N19s6-SsHeJS5iG0tzN-34" value="Proffessor" style="swimlane;fontStyle=0;childLayout=stackLayout;horizontal=1;startSize=26;fillColor=none;horizontalStack=0;resizeParent=1;resizeParentMax=0;resizeLast=0;collapsible=1;marginBottom=0;" parent="1" vertex="1">
          <mxGeometry x="50" y="500" width="140" height="120" as="geometry" />
        </mxCell>
        <mxCell id="4N19s6-SsHeJS5iG0tzN-36" value="Officer" style="swimlane;fontStyle=0;childLayout=stackLayout;horizontal=1;startSize=26;fillColor=none;horizontalStack=0;resizeParent=1;resizeParentMax=0;resizeLast=0;collapsible=1;marginBottom=0;" parent="1" vertex="1">
          <mxGeometry x="250" y="550" width="140" height="120" as="geometry" />
        </mxCell>
      </root>
    </mxGraphModel>
  </diagram>
</mxfile>
